<mxfile host="app.diagrams.net" modified="2023-05-01T14:56:50.535Z" agent="Mozilla/5.0 (Windows NT 10.0; Win64; x64) AppleWebKit/537.36 (KHTML, like Gecko) Chrome/112.0.0.0 Safari/537.36" etag="v5vTflaANhOBXxOnDJE9" version="21.2.1" type="github">
  <diagram name="Page-1" id="2YBvvXClWsGukQMizWep">
    <mxGraphModel dx="2045" dy="630" grid="1" gridSize="10" guides="1" tooltips="1" connect="1" arrows="1" fold="1" page="1" pageScale="1" pageWidth="850" pageHeight="1100" math="0" shadow="0">
      <root>
        <mxCell id="0" />
        <mxCell id="1" parent="0" />
        <mxCell id="X_h3rkWna0nnMa6Pr6xD-68" value=":executeFacade" style="shape=umlLifeline;perimeter=lifelinePerimeter;whiteSpace=wrap;html=1;container=0;dropTarget=0;collapsible=0;recursiveResize=0;outlineConnect=0;portConstraint=eastwest;newEdgeStyle={&quot;edgeStyle&quot;:&quot;elbowEdgeStyle&quot;,&quot;elbow&quot;:&quot;vertical&quot;,&quot;curved&quot;:0,&quot;rounded&quot;:0};strokeWidth=2;labelBackgroundColor=none;" vertex="1" parent="1">
          <mxGeometry x="40" y="40" width="100" height="720" as="geometry" />
        </mxCell>
        <mxCell id="X_h3rkWna0nnMa6Pr6xD-112" value="::ShippingManagerUI" style="shape=umlLifeline;perimeter=lifelinePerimeter;whiteSpace=wrap;html=1;container=0;dropTarget=0;collapsible=0;recursiveResize=0;outlineConnect=0;portConstraint=eastwest;newEdgeStyle={&quot;edgeStyle&quot;:&quot;elbowEdgeStyle&quot;,&quot;elbow&quot;:&quot;vertical&quot;,&quot;curved&quot;:0,&quot;rounded&quot;:0};strokeWidth=2;labelBackgroundColor=none;" vertex="1" parent="1">
          <mxGeometry x="-90" y="40" width="120" height="720" as="geometry" />
        </mxCell>
        <mxCell id="X_h3rkWna0nnMa6Pr6xD-152" value="" style="points=[];perimeter=orthogonalPerimeter;outlineConnect=0;targetShapes=umlLifeline;portConstraint=eastwest;newEdgeStyle={&quot;edgeStyle&quot;:&quot;elbowEdgeStyle&quot;,&quot;elbow&quot;:&quot;vertical&quot;,&quot;curved&quot;:0,&quot;rounded&quot;:0};strokeWidth=2;labelBackgroundColor=none;fillColor=default;fontColor=default;html=1;" vertex="1" parent="1">
          <mxGeometry x="-35" y="90" width="10" height="530" as="geometry" />
        </mxCell>
        <mxCell id="X_h3rkWna0nnMa6Pr6xD-72" value=":ShippingTruckDao" style="shape=umlLifeline;perimeter=lifelinePerimeter;whiteSpace=wrap;html=1;container=0;dropTarget=0;collapsible=0;recursiveResize=0;outlineConnect=0;portConstraint=eastwest;newEdgeStyle={&quot;edgeStyle&quot;:&quot;elbowEdgeStyle&quot;,&quot;elbow&quot;:&quot;vertical&quot;,&quot;curved&quot;:0,&quot;rounded&quot;:0};strokeWidth=2;labelBackgroundColor=none;" vertex="1" parent="1">
          <mxGeometry x="520" y="40" width="110" height="730" as="geometry" />
        </mxCell>
        <mxCell id="X_h3rkWna0nnMa6Pr6xD-75" value=":Shipment" style="shape=umlLifeline;perimeter=lifelinePerimeter;whiteSpace=wrap;html=1;container=0;dropTarget=0;collapsible=0;recursiveResize=0;outlineConnect=0;portConstraint=eastwest;newEdgeStyle={&quot;edgeStyle&quot;:&quot;elbowEdgeStyle&quot;,&quot;elbow&quot;:&quot;vertical&quot;,&quot;curved&quot;:0,&quot;rounded&quot;:0};strokeWidth=2;labelBackgroundColor=none;" vertex="1" parent="1">
          <mxGeometry x="400" y="40" width="110" height="730" as="geometry" />
        </mxCell>
        <mxCell id="X_h3rkWna0nnMa6Pr6xD-78" value=":ShippingTruck" style="shape=umlLifeline;perimeter=lifelinePerimeter;whiteSpace=wrap;html=1;container=0;dropTarget=0;collapsible=0;recursiveResize=0;outlineConnect=0;portConstraint=eastwest;newEdgeStyle={&quot;edgeStyle&quot;:&quot;elbowEdgeStyle&quot;,&quot;elbow&quot;:&quot;vertical&quot;,&quot;curved&quot;:0,&quot;rounded&quot;:0};strokeWidth=2;labelBackgroundColor=none;" vertex="1" parent="1">
          <mxGeometry x="290" y="40" width="100" height="730" as="geometry" />
        </mxCell>
        <mxCell id="X_h3rkWna0nnMa6Pr6xD-85" value=":ActiveShipmentDao" style="shape=umlLifeline;perimeter=lifelinePerimeter;whiteSpace=wrap;html=1;container=0;dropTarget=0;collapsible=0;recursiveResize=0;outlineConnect=0;portConstraint=eastwest;newEdgeStyle={&quot;edgeStyle&quot;:&quot;elbowEdgeStyle&quot;,&quot;elbow&quot;:&quot;vertical&quot;,&quot;curved&quot;:0,&quot;rounded&quot;:0};strokeWidth=2;labelBackgroundColor=none;" vertex="1" parent="1">
          <mxGeometry x="650" y="40" width="110" height="730" as="geometry" />
        </mxCell>
        <mxCell id="X_h3rkWna0nnMa6Pr6xD-91" value="ref" style="shape=umlFrame;whiteSpace=wrap;html=1;pointerEvents=0;strokeWidth=2;labelBackgroundColor=none;fillColor=#f8cecc;strokeColor=#b85450;" vertex="1" parent="1">
          <mxGeometry x="90" y="110" width="770" height="100" as="geometry" />
        </mxCell>
        <mxCell id="X_h3rkWna0nnMa6Pr6xD-95" value="alt" style="shape=umlFrame;whiteSpace=wrap;html=1;pointerEvents=0;strokeWidth=2;labelBackgroundColor=none;fillColor=#ffe6cc;strokeColor=#d79b00;" vertex="1" parent="1">
          <mxGeometry x="-30" y="270" width="880" height="340" as="geometry" />
        </mxCell>
        <mxCell id="X_h3rkWna0nnMa6Pr6xD-97" value="result trucks is&lt;br&gt;empty" style="text;strokeColor=none;fillColor=none;align=left;verticalAlign=top;spacingLeft=4;spacingRight=4;overflow=hidden;rotatable=0;points=[[0,0.5],[1,0.5]];portConstraint=eastwest;whiteSpace=wrap;html=1;strokeWidth=2;labelBackgroundColor=none;" vertex="1" parent="1">
          <mxGeometry x="30" y="260" width="120" height="40" as="geometry" />
        </mxCell>
        <mxCell id="X_h3rkWna0nnMa6Pr6xD-106" value="opt" style="shape=umlFrame;whiteSpace=wrap;html=1;pointerEvents=0;strokeWidth=2;labelBackgroundColor=none;fillColor=#ffe6cc;strokeColor=#d79b00;" vertex="1" parent="1">
          <mxGeometry x="90" y="510" width="770" height="80" as="geometry" />
        </mxCell>
        <mxCell id="X_h3rkWna0nnMa6Pr6xD-107" value="driver is null" style="text;strokeColor=none;fillColor=none;align=left;verticalAlign=top;spacingLeft=4;spacingRight=4;overflow=hidden;rotatable=0;points=[[0,0.5],[1,0.5]];portConstraint=eastwest;whiteSpace=wrap;html=1;strokeWidth=2;labelBackgroundColor=none;" vertex="1" parent="1">
          <mxGeometry x="150" y="510" width="150" height="40" as="geometry" />
        </mxCell>
        <mxCell id="X_h3rkWna0nnMa6Pr6xD-109" value="ref" style="shape=umlFrame;whiteSpace=wrap;html=1;pointerEvents=0;strokeWidth=2;labelBackgroundColor=none;fillColor=#f8cecc;strokeColor=#b85450;" vertex="1" parent="1">
          <mxGeometry x="90" y="552.5" width="770" height="30" as="geometry" />
        </mxCell>
        <mxCell id="X_h3rkWna0nnMa6Pr6xD-111" value="getAllAvailableTrucksForShipment" style="rounded=1;whiteSpace=wrap;html=1;strokeWidth=2;labelBackgroundColor=none;fillColor=#f8cecc;strokeColor=#b85450;" vertex="1" parent="1">
          <mxGeometry x="150" y="110" width="210" height="30" as="geometry" />
        </mxCell>
        <mxCell id="X_h3rkWna0nnMa6Pr6xD-120" value="" style="endArrow=none;dashed=1;html=1;dashPattern=1 3;strokeWidth=2;rounded=0;exitX=0.003;exitY=0.528;exitDx=0;exitDy=0;exitPerimeter=0;labelBackgroundColor=none;fontColor=default;" edge="1" parent="1">
          <mxGeometry width="50" height="50" relative="1" as="geometry">
            <mxPoint x="-90" y="360" as="sourcePoint" />
            <mxPoint x="787" y="361" as="targetPoint" />
            <Array as="points">
              <mxPoint x="37" y="361" />
            </Array>
          </mxGeometry>
        </mxCell>
        <mxCell id="X_h3rkWna0nnMa6Pr6xD-123" value="replan()" style="html=1;verticalAlign=bottom;endArrow=block;edgeStyle=elbowEdgeStyle;elbow=vertical;curved=0;rounded=0;strokeWidth=2;labelBackgroundColor=none;fontColor=default;" edge="1" parent="1" target="X_h3rkWna0nnMa6Pr6xD-68">
          <mxGeometry x="0.1442" relative="1" as="geometry">
            <mxPoint x="-30" y="320" as="sourcePoint" />
            <Array as="points">
              <mxPoint x="-20" y="320" />
              <mxPoint x="-50" y="300" />
            </Array>
            <mxPoint x="-140" y="320" as="targetPoint" />
            <mxPoint as="offset" />
          </mxGeometry>
        </mxCell>
        <mxCell id="X_h3rkWna0nnMa6Pr6xD-125" value="ref" style="shape=umlFrame;whiteSpace=wrap;html=1;pointerEvents=0;strokeWidth=2;labelBackgroundColor=none;fillColor=#f8cecc;strokeColor=#b85450;" vertex="1" parent="1">
          <mxGeometry x="90" y="310" width="770" height="40" as="geometry" />
        </mxCell>
        <mxCell id="X_h3rkWna0nnMa6Pr6xD-126" value="replan" style="rounded=1;whiteSpace=wrap;html=1;strokeWidth=2;labelBackgroundColor=none;fillColor=#f8cecc;strokeColor=#b85450;" vertex="1" parent="1">
          <mxGeometry x="150" y="310" width="210" height="30" as="geometry" />
        </mxCell>
        <mxCell id="X_h3rkWna0nnMa6Pr6xD-127" value="setShipmentTruck(chosenTruck)" style="html=1;verticalAlign=bottom;endArrow=block;edgeStyle=elbowEdgeStyle;elbow=vertical;curved=0;rounded=0;strokeWidth=2;labelBackgroundColor=none;fontColor=default;" edge="1" parent="1">
          <mxGeometry x="0.1389" relative="1" as="geometry">
            <mxPoint x="-30" y="380" as="sourcePoint" />
            <Array as="points">
              <mxPoint x="-20" y="380" />
              <mxPoint x="-50" y="360" />
            </Array>
            <mxPoint x="90" y="380" as="targetPoint" />
            <mxPoint as="offset" />
          </mxGeometry>
        </mxCell>
        <mxCell id="X_h3rkWna0nnMa6Pr6xD-128" value="ref" style="shape=umlFrame;whiteSpace=wrap;html=1;pointerEvents=0;strokeWidth=2;labelBackgroundColor=none;fillColor=#f8cecc;strokeColor=#b85450;" vertex="1" parent="1">
          <mxGeometry x="90" y="377.5" width="770" height="45" as="geometry" />
        </mxCell>
        <mxCell id="X_h3rkWna0nnMa6Pr6xD-129" value="setShipmentTruck" style="rounded=1;whiteSpace=wrap;html=1;strokeWidth=2;labelBackgroundColor=none;fillColor=#f8cecc;strokeColor=#b85450;" vertex="1" parent="1">
          <mxGeometry x="150" y="377.5" width="210" height="30" as="geometry" />
        </mxCell>
        <mxCell id="X_h3rkWna0nnMa6Pr6xD-136" value="" style="html=1;verticalAlign=bottom;endArrow=block;edgeStyle=elbowEdgeStyle;elbow=vertical;curved=0;rounded=0;strokeWidth=2;labelBackgroundColor=none;fontColor=default;" edge="1" parent="1" target="X_h3rkWna0nnMa6Pr6xD-95">
          <mxGeometry x="-1" y="-40" relative="1" as="geometry">
            <mxPoint x="-30" y="470" as="sourcePoint" />
            <Array as="points">
              <mxPoint x="-20" y="470" />
              <mxPoint x="-50" y="450" />
            </Array>
            <mxPoint x="90" y="470" as="targetPoint" />
            <mxPoint as="offset" />
          </mxGeometry>
        </mxCell>
        <mxCell id="X_h3rkWna0nnMa6Pr6xD-137" value=":SuperMarketCompany" style="shape=umlLifeline;perimeter=lifelinePerimeter;whiteSpace=wrap;html=1;container=0;dropTarget=0;collapsible=0;recursiveResize=0;outlineConnect=0;portConstraint=eastwest;newEdgeStyle={&quot;edgeStyle&quot;:&quot;elbowEdgeStyle&quot;,&quot;elbow&quot;:&quot;vertical&quot;,&quot;curved&quot;:0,&quot;rounded&quot;:0};strokeWidth=2;labelBackgroundColor=none;" vertex="1" parent="1">
          <mxGeometry x="150" y="40" width="130" height="730" as="geometry" />
        </mxCell>
        <mxCell id="X_h3rkWna0nnMa6Pr6xD-138" value=":DataBase" style="shape=umlLifeline;perimeter=lifelinePerimeter;whiteSpace=wrap;html=1;container=0;dropTarget=0;collapsible=0;recursiveResize=0;outlineConnect=0;portConstraint=eastwest;newEdgeStyle={&quot;edgeStyle&quot;:&quot;elbowEdgeStyle&quot;,&quot;elbow&quot;:&quot;vertical&quot;,&quot;curved&quot;:0,&quot;rounded&quot;:0};strokeWidth=2;labelBackgroundColor=none;" vertex="1" parent="1">
          <mxGeometry x="780" y="40" width="110" height="730" as="geometry" />
        </mxCell>
        <mxCell id="X_h3rkWna0nnMa6Pr6xD-142" value="return trucks" style="html=1;verticalAlign=bottom;endArrow=open;dashed=1;endSize=8;edgeStyle=elbowEdgeStyle;elbow=vertical;curved=0;rounded=0;strokeWidth=2;labelBackgroundColor=none;fontColor=default;" edge="1" parent="1">
          <mxGeometry x="0.0204" relative="1" as="geometry">
            <mxPoint x="92.5" y="220" as="sourcePoint" />
            <mxPoint x="-30" y="220" as="targetPoint" />
            <mxPoint as="offset" />
          </mxGeometry>
        </mxCell>
        <mxCell id="X_h3rkWna0nnMa6Pr6xD-143" value="truck" style="html=1;verticalAlign=bottom;endArrow=open;dashed=1;endSize=8;edgeStyle=elbowEdgeStyle;elbow=vertical;curved=0;rounded=0;strokeWidth=2;labelBackgroundColor=none;fontColor=default;" edge="1" parent="1">
          <mxGeometry relative="1" as="geometry">
            <mxPoint x="90" y="422.5" as="sourcePoint" />
            <mxPoint x="-30" y="423" as="targetPoint" />
          </mxGeometry>
        </mxCell>
        <mxCell id="X_h3rkWna0nnMa6Pr6xD-146" value="" style="html=1;points=[];perimeter=orthogonalPerimeter;outlineConnect=0;targetShapes=umlLifeline;portConstraint=eastwest;newEdgeStyle={&quot;edgeStyle&quot;:&quot;elbowEdgeStyle&quot;,&quot;elbow&quot;:&quot;vertical&quot;,&quot;curved&quot;:0,&quot;rounded&quot;:0};strokeWidth=2;labelBackgroundColor=none;" vertex="1" parent="1">
          <mxGeometry x="85" y="460" width="10" height="40" as="geometry" />
        </mxCell>
        <mxCell id="X_h3rkWna0nnMa6Pr6xD-147" value="driver = pickDriver()" style="html=1;align=left;spacingLeft=2;endArrow=block;rounded=0;edgeStyle=orthogonalEdgeStyle;curved=0;rounded=0;strokeWidth=2;labelBackgroundColor=none;fontColor=default;" edge="1" target="X_h3rkWna0nnMa6Pr6xD-146" parent="1" source="X_h3rkWna0nnMa6Pr6xD-68">
          <mxGeometry relative="1" as="geometry">
            <mxPoint x="340" y="300" as="sourcePoint" />
            <Array as="points">
              <mxPoint x="150" y="440" />
              <mxPoint x="150" y="480" />
            </Array>
          </mxGeometry>
        </mxCell>
        <mxCell id="X_h3rkWna0nnMa6Pr6xD-148" value="replan" style="rounded=1;whiteSpace=wrap;html=1;strokeWidth=2;labelBackgroundColor=none;fillColor=#f8cecc;strokeColor=#b85450;" vertex="1" parent="1">
          <mxGeometry x="150" y="552.5" width="200" height="22.5" as="geometry" />
        </mxCell>
        <mxCell id="X_h3rkWna0nnMa6Pr6xD-149" value="sd replace truck" style="shape=umlFrame;whiteSpace=wrap;html=1;pointerEvents=0;strokeWidth=2;labelBackgroundColor=none;fillColor=#e1d5e7;strokeColor=#9673a6;" vertex="1" parent="1">
          <mxGeometry x="-160" y="20" width="1070" height="610" as="geometry" />
        </mxCell>
        <mxCell id="X_h3rkWna0nnMa6Pr6xD-124" value="getAllAvailableTrucksForShipment()" style="html=1;verticalAlign=bottom;endArrow=block;edgeStyle=elbowEdgeStyle;elbow=vertical;curved=0;rounded=0;strokeWidth=2;labelBackgroundColor=none;fontColor=default;" edge="1" parent="1">
          <mxGeometry x="0.1442" relative="1" as="geometry">
            <mxPoint x="-30" y="160" as="sourcePoint" />
            <Array as="points">
              <mxPoint x="-20" y="160" />
              <mxPoint x="-50" y="140" />
            </Array>
            <mxPoint x="90" y="160" as="targetPoint" />
            <mxPoint as="offset" />
          </mxGeometry>
        </mxCell>
      </root>
    </mxGraphModel>
  </diagram>
</mxfile>
